<?xml version="1.0" encoding="UTF-8"?> <svg xmlns="http://www.w3.org/2000/svg" xmlns:xlink="http://www.w3.org/1999/xlink" width="812" height="654" viewBox="0 0 812 654"><defs><clipPath id="clip-path"><rect id="Rect치ngulo_161" data-name="Rect치ngulo 161" width="812" height="654" transform="translate(900 139)" fill="#fff" stroke="#707070" stroke-width="1"></rect></clipPath><clipPath id="clip-path-2"><rect id="Rect치ngulo_151" data-name="Rect치ngulo 151" width="837" height="632" transform="translate(875 161)" fill="#fff" stroke="#707070" stroke-width="1"></rect></clipPath></defs><g id="gestion-citas-medicas" transform="translate(-900 -139)" clip-path="url(#clip-path)"><g id="Grupo_173" data-name="Grupo 173"><g id="Grupo_126" data-name="Grupo 126" transform="translate(0 -55)"><path id="Trazado_659" data-name="Trazado 659" d="M337.278-3756.028c-17.328,24.638-30.7,58.157-21.42,89.1,9.249,30.844,38.828,49.863,51.754,79.161,7.306,16.559,7.5,34.767,7.778,52.542.362,23.269-4.184,47.978,11.542,67.642,9.3,11.631,23.338,18.5,37.532,23.018,28.505,9.067,58.367,13.324,83.687,30.449,41.6,28.135,92.679,37.972,142.251,34.932a322.083,322.083,0,0,0,74.147-13.622c27.978-8.54,52.845-23.655,81.015-31.751,48.822-14.033,115.58-14.226,144.15-63.623,19.236-33.256,25.9-74.36,10.936-110.595-7.115-17.229-20.7-30.388-28.43-47.3-10.687-23.369-13.569-50.016-6.429-74.841q.445-1.533.929-3.051c7.458-23.21,22.474-43.168,28.685-66.8,12.82-48.781-15.51-100.357-52.75-131.711-15.475-13.029-32.765-23.873-51.6-30.055-26.17-8.591-53.8-7.843-81.447-7.1-27.222.736-54.456,1.471-80.3-6.711-39.969-12.651-72.781-45.539-113.5-55.049-31.295-7.308-65.112.493-91.7,19.594s-45.874,48.994-54.669,81.915c-8.149,30.5-7.894,64.01-22.344,91.722-12.364,23.706-35.277,36.5-53.881,53.7A115.957,115.957,0,0,0,337.278-3756.028Z" transform="translate(656.466 4316.474)" fill="#edf7e8"></path><path id="Trazado_660" data-name="Trazado 660" d="M737.525-3527.431l-.712-1.221c20.245-11.8,43.824-12.721,66.628-13.606,9.338-.363,18.994-.736,28.164-1.872,42.905-5.312,74.532-32.939,84.6-73.9,9.184-37.374-1.076-77.365-26.778-104.368-1.3-1.368-2.635-2.756-3.925-4.1-8.931-9.288-18.166-18.895-24.747-30.2a65.123,65.123,0,0,1-8.138-23.121,75.1,75.1,0,0,1,.366-23.814c2.507-14.8,9.082-30.111,19.015-44.275,2.626-3.746,5.4-7.5,8.082-11.135,8.6-11.649,17.5-23.7,23.134-37.482,6.746-16.495,8.321-37.614,4.436-59.465-6.336-35.641-26.436-67.728-53.771-85.832-35.462-23.486-72.96-18.378-112.659-12.971-16.551,2.254-33.551,4.57-50.356,4.57-4.368,0-8.721-.156-13.051-.51a124.531,124.531,0,0,1-22.842-4.053,124.321,124.321,0,0,1-21.83-8.291,117.5,117.5,0,0,1-37.378-28.783c-29.535-34.291-69.958-53.11-108.787-53.11a111.308,111.308,0,0,0-48.7,10.933c-30.7,14.857-55.926,43.056-69.2,77.366-7.55,19.519-9.073,40.707-10.543,61.2-1.379,19.194-2.8,39.041-9.118,57.8a119.809,119.809,0,0,1-15.251,30.148,98.559,98.559,0,0,1-23.456,24.048c-23.606,16.744-39.658,32.819-50.517,50.587-15.684,25.663-19.188,56.043-9.144,79.286,7.189,16.638,21.149,27.272,34.649,37.555,7.013,5.343,14.265,10.867,20.415,17.136,6.92,7.056,11.7,14.352,14.621,22.308,2.417,6.587,3.573,14.217,3.535,23.328-.045,10.617-2.008,21.486-3.906,32-3.222,17.841-6.554,36.291-.562,53.953,3.917,11.547,13.765,19.937,29.269,24.935,10.886,3.511,24.22,5.33,40.763,5.565,4.892.069,9.9.028,14.753-.013,19.108-.159,38.868-.326,57.033,6.183l-.478,1.332c-17.927-6.424-37.558-6.26-56.544-6.1-4.855.042-9.877.084-14.784.013-16.686-.236-30.156-2.079-41.179-5.632-15.953-5.144-26.1-13.834-30.174-25.828-6.108-18.009-2.744-36.64.51-54.659,1.888-10.453,3.84-21.262,3.884-31.753.038-8.94-1.09-16.41-3.448-22.835-6.354-17.318-20.057-27.756-34.565-38.806-13.645-10.4-27.754-21.141-35.091-38.119a71.465,71.465,0,0,1-5.326-20.141,84.039,84.039,0,0,1,.272-20.878,103.059,103.059,0,0,1,14.29-39.566c10.962-17.937,27.138-34.143,50.906-51,16.847-11.951,30.765-31.449,38.185-53.493,6.257-18.59,7.676-38.346,9.048-57.452,1.479-20.594,3.009-41.89,10.636-61.606,13.4-34.64,38.878-63.118,69.9-78.128a111.64,111.64,0,0,1,42.6-10.984,126.356,126.356,0,0,1,42.965,5.218c27.7,8.185,53.84,25.336,73.613,48.293,20.022,23.246,49.579,38.059,81.094,40.639,20.837,1.7,42.323-1.221,63.1-4.052,19.116-2.6,38.88-5.295,57.91-4.313a119.623,119.623,0,0,1,28.27,4.66A101.335,101.335,0,0,1,854.659-4043c13.691,9.068,25.95,21.966,35.455,37.3a141.951,141.951,0,0,1,18.927,49.466,130.26,130.26,0,0,1,1.91,30.5,93.131,93.131,0,0,1-6.43,29.744c-5.7,13.948-14.65,26.067-23.3,37.787-2.679,3.625-5.447,7.375-8.063,11.106-21.692,30.93-25.868,64.458-11.178,89.686,6.5,11.155,15.67,20.7,24.544,29.93,1.291,1.342,2.627,2.731,3.931,4.1A110.843,110.843,0,0,1,917.341-3674a117.025,117.025,0,0,1,.236,56.3,102.746,102.746,0,0,1-11.763,28.709,94.329,94.329,0,0,1-19.015,22.569c-14.9,12.886-33.923,21.077-55.02,23.69-9.231,1.142-18.917,1.517-28.284,1.881C780.865-3539.966,757.465-3539.056,737.525-3527.431Z" transform="translate(714.338 4419.22)" fill="#ecf6e8"></path><path id="Trazado_661" data-name="Trazado 661" d="M2998.334-4581.327c.46-2.792-3.235-8.424-7.266-8.333-1.6.036-3.173.451-4.774.374-4.266-.208-6.478-3.531-8.122-6.281s-4.919-5.887-9.077-5.189c-5.987,1-9,8.9-15.812,2.974-4.454-3.883-4.786-9.311-9.831-13.076-3.463-2.584-9.093-4.116-13.734-2.688-6.058,1.865-8.31,7.871-14.761,8.916-7.144,1.158-12.281-4.278-14.562-8.2-2.768-4.755-3.795-9.9-6.166-14.739-2.194-4.481-6.607-10.483-14.513-10.353-6.685.11-9.631,4.342-12.913,7.7-4.266,4.37-13.136,20.058-23.082,18.167-3.878-.738-5.814-3.818-9.314-5.2-5.625-2.218-12.8.831-16.186,4.664s-4.733,8.463-8.563,12.089a8.865,8.865,0,0,1-3.75,2.25c-5.351,1.465-10.331-3.039-16.059-3.375a13.343,13.343,0,0,0-9.893,3.893c-2.272,2.265-3.511,4.942-5.251,7.426a5.523,5.523,0,0,1-1.909,1.86c-2.512,1.348-6.048.212-9.126-.317-7.606-1.31-16.245,2.181-18.391,7.431Z" transform="translate(-1385.839 4831.842)" fill="#ecf6e8"></path><path id="Trazado_662" data-name="Trazado 662" d="M130.088-3699.394c.237-1.436-1.662-4.331-3.735-4.284-.824.019-1.631.233-2.454.192-2.193-.107-3.33-1.814-4.176-3.229s-2.529-3.026-4.666-2.667c-3.078.517-4.629,4.578-8.127,1.529-2.29-2-2.462-4.786-5.055-6.722a8.463,8.463,0,0,0-7.06-1.381c-3.114.958-4.273,4.045-7.588,4.583-3.673.595-6.314-2.2-7.486-4.214-1.423-2.446-1.951-5.089-3.17-7.577-1.128-2.3-3.4-5.389-7.461-5.322-3.437.056-4.951,2.231-6.638,3.958-2.194,2.246-6.753,10.312-11.866,9.34-1.994-.38-2.989-1.963-4.788-2.672-2.892-1.14-6.579.427-8.321,2.4s-2.433,4.35-4.4,6.214a4.557,4.557,0,0,1-1.928,1.158c-2.75.752-5.311-1.564-8.255-1.736a6.857,6.857,0,0,0-5.086,2,25.292,25.292,0,0,0-2.7,3.817,2.846,2.846,0,0,1-.981.956c-1.292.693-3.109.109-4.692-.164-3.91-.672-8.352,1.123-9.454,3.82Z" transform="translate(919.113 4068.275)" fill="#ecf6e8"></path></g><g id="Grupo_147" data-name="Grupo 147" transform="translate(-8585 -5415)"><path id="Trazado_773" data-name="Trazado 773" d="M308.361-173.522H409.267a34.524,34.524,0,0,0,34.2-29.773L478.311-453.85A34.537,34.537,0,0,0,444.1-493.134H319.975A34.534,34.534,0,0,0,285.48-460.2L273.866-209.65A34.532,34.532,0,0,0,308.361-173.522Z" transform="translate(9722.852 6458.544)" fill="#b9b9b5"></path><path id="Trazado_774" data-name="Trazado 774" d="M670.6-666.12c-7.838.83-15.37-9.512-16.819-23.105s3.728-25.3,11.566-26.133S678.442-666.957,670.6-666.12Z" transform="translate(9268.676 6529.577)" fill="#53869c"></path><path id="Trazado_775" data-name="Trazado 775" d="M362.206-774.687c25.534-46.546,63.18-48.6,79.508-34.773,35.243,29.829-9.416,79.669,5.13,108.041s31.386,30.024,33.481,53.157c1.939,21.385-13,43.368-7.273,56.914-24.908,15.029-72.718-6.246-81.686-37.584-16.213-56.7,25.194-96.484,21.513-118.385-5.185-30.845-35.08-31.055-45.415-23.494S358.416-767.776,362.206-774.687Z" transform="translate(9662.754 6562.039)" fill="#0a2d4e"></path><path id="Trazado_776" data-name="Trazado 776" d="M871.449-289.514c-3.273,19.67-15.438,48.783-17.1,51.273-5.307,7.967-146.1,29.317-150.744,34.624S874.307-185.7,889.35-202.406c8.226-9.137,17.717-40.673,26.7-74.95C904.883-276.6,888.608-279.547,871.449-289.514Z" transform="translate(8993.099 6393.462)" fill="#f7a179"></path><path id="Trazado_777" data-name="Trazado 777" d="M568.284-513.569c13.839,4.974,26.3,11.968,34.053,25.045,10.546,17.805,37.645,131.488,35.9,135.231-4.089,8.75-53.811,17.37-56.11,14.111-2.239-3.177-7.688-30.161-9.389-41.163.68,17.921-7.818,102.26-7.137,109.744s32.318,56.267,42.108,98.838c5.81,25.228-139.1-26.215-152.329-27.943s-51.429-12.444-58.145-11.117c3.715-12.7,33.651-39.91,35.692-50.116s-8.294-84.434-10.11-94.13c-3.742-1.055-12-3.606-15.887-8.845-1.129,4.137-3.089,11.505-4.109,14.227-1.789,4.756-45.939-6.382-46.925-12.839,1.735-22.7,29.392-117.582,36.89-126.795,7.94-9.75,40.373-26.324,40.373-26.324Z" transform="translate(9507.351 6465.74)" fill="#fff"></path><path id="Trazado_778" data-name="Trazado 778" d="M546.368-686.056c-23.269-17.084-38.836-39.571-29.2-63.057,10.621-25.882,36.482-43.638,67.03-39.82,31.862,3.982,54.035,32.518,42.809,70.021C612.406-670.129,585.694-657.188,546.368-686.056Z" transform="translate(9407.947 6553.254)" fill="#0a2d4e"></path><path id="Trazado_779" data-name="Trazado 779" d="M535.927-668.614c-3.633,21.316,1.925,67.582,4.8,72.936,4.729,8.831,53.226,33.216,53.226,33.216S533.77-539.8,505.534-542.52c-23.452-2.259-46.714-22.018-46.714-22.018s28.338-13.321,32.631-22.207c3.62-7.484,0-49.708,0-49.708Z" transform="translate(9481.685 6514.632)" fill="#f7a179"></path><path id="Trazado_780" data-name="Trazado 780" d="M535.388-720.909C522.448-688.053,548-622.717,571.23-625.377s44.469-29.862,47.789-57.737c5.974,0,15.927-23.235,8.627-26.548s-11.947,6.014-11.947,6.014-7.96-27.548-24.555-29.535-24.555,10.906-30.528,10.906S541.307-735.945,535.388-720.909Z" transform="translate(9395.693 6535.337)" fill="#f7a179"></path><path id="Trazado_781" data-name="Trazado 781" d="M532.469-277.694c3.5,18.88,7.831,58.322,2.3,68.738-9.525,17.955-123.141,13.71-176.816,2.817-11.41-2.32-3.354-10.8-.762-11.022,25.181-2.123,121.937-22.391,125.951-25.949,1.592-1.4.51-10.757-1.885-20.622C479.618-270.468,531.149-284.824,532.469-277.694Z" transform="translate(9610.896 6390.303)" fill="#f7a179"></path><path id="Trazado_782" data-name="Trazado 782" d="M677.173-187.814c-13.227.619-51.538.619-54.865,2.123s-23.432,23.541-21.194,24.834c4.014,2.327,17.3-12.682,20.69-13.478,6.151-1.442-6.021,19.772-4.511,19.921,5.742.558,14.295-17.554,15.8-16.7s-4.674,16.669-2.633,16.7c7.151.122,8.906-17.356,11.417-17.356,1.544,0,4.409,16.091,6.273,15.805,4.885-.755,1.374-15.091,3.007-15.091,4.212,0,20.051,9.069,26.018,8.321s10.852-19.54,10.852-19.54Z" transform="translate(9290.914 6360.956)" fill="#f7a179"></path><path id="Trazado_787" data-name="Trazado 787" d="M530.492-677.8c7.886-.122,14.1-11.308,13.886-24.977s-6.783-24.657-14.669-24.527S522.606-677.671,530.492-677.8Z" transform="translate(9486.786 6533.392)" fill="#53869c"></path><path id="Trazado_788" data-name="Trazado 788" d="M542.78-753.778a67.259,67.259,0,0,1,7.09-11.859c7.26-20.03,23.48-27.12,39.564-24.6,18.9,2.973,37.625,19.221,41.421,43.36l4.028-.633c-3.388-21.561-17.445-37-33.644-43.653C577.139-801.057,548.3-791.518,542.78-753.778Z" transform="translate(9383.627 6554.966)" fill="#53869c"></path><path id="Trazado_789" data-name="Trazado 789" d="M546.07-618.831a53.686,53.686,0,0,0,37.325-14.383c8.892-8.253,15.268-19.649,17.057-30.488l-2.687-.443C594.6-644.992,575-619.178,541.341-621.737l-.211,2.715Q543.671-618.828,546.07-618.831Z" transform="translate(9419.181 6513.204)" fill="#53869c"></path><path id="Trazado_790" data-name="Trazado 790" d="M622-602.551c0,2.824,3.96,5.1,8.845,5.1s8.845-2.279,8.845-5.1-3.96-5.1-8.845-5.1S622-605.368,622-602.551Z" transform="translate(9324.921 6495.148)" fill="#212a53"></path><path id="Trazado_791" data-name="Trazado 791" d="M784.581-451.641l63.676,202.418a3.718,3.718,0,0,0,3.552,2.606h190.2a3.723,3.723,0,0,1,3.722,3.722,3.724,3.724,0,0,1-3.722,3.728H569.181a6.808,6.808,0,0,1-6.491-4.763L497.8-450.213a4.762,4.762,0,0,1,4.545-6.191H778.09A6.808,6.808,0,0,1,784.581-451.641Z" transform="translate(9003.533 6446.805)" fill="#005d74"></path></g><g id="Grupo_128" data-name="Grupo 128"><path id="Trazado_186" data-name="Trazado 186" d="M3196.155-3710.669H3389.2a20.064,20.064,0,0,0,20-20.006v-101.51a20.064,20.064,0,0,0-20-20h-193.05a20.064,20.064,0,0,0-20,20v101.51A20.065,20.065,0,0,0,3196.155-3710.669Z" transform="translate(-1698.15 4105.137)" fill="#6bb549"></path><path id="Trazado_187" data-name="Trazado 187" d="M3367.4-3078.037v-65.033l50.935,27.782Z" transform="translate(-1858.725 3509.756)" fill="#6bb549"></path><path id="Trazado_188" data-name="Trazado 188" d="M3506.67-3435.923H3403.645a6.193,6.193,0,0,1-6.175-6.173,6.193,6.193,0,0,1,6.175-6.174H3506.67a6.192,6.192,0,0,1,6.174,6.174A6.192,6.192,0,0,1,3506.67-3435.923Z" transform="translate(-1883.972 3766.004)" fill="#fff"></path><path id="Trazado_189" data-name="Trazado 189" d="M4203.751-3435.923h-25.467a6.192,6.192,0,0,1-6.174-6.173,6.192,6.192,0,0,1,6.174-6.174h25.467a6.192,6.192,0,0,1,6.173,6.174A6.191,6.191,0,0,1,4203.751-3435.923Z" transform="translate(-2534.363 3766.004)" fill="#fff"></path><path id="Trazado_190" data-name="Trazado 190" d="M3694.735-3623.09H3797.76a6.192,6.192,0,0,1,6.174,6.174,6.192,6.192,0,0,1-6.174,6.174H3694.735a6.193,6.193,0,0,1-6.175-6.174A6.193,6.193,0,0,1,3694.735-3623.09Z" transform="translate(-2128.372 3912.783)" fill="#fff"></path><path id="Trazado_191" data-name="Trazado 191" d="M3403.645-3623.09h25.466a6.192,6.192,0,0,1,6.174,6.174,6.192,6.192,0,0,1-6.174,6.174h-25.466a6.193,6.193,0,0,1-6.175-6.174A6.193,6.193,0,0,1,3403.645-3623.09Z" transform="translate(-1883.972 3912.783)" fill="#fff"></path><path id="Trazado_192" data-name="Trazado 192" d="M3472.328-3276.111h-68.683a6.194,6.194,0,0,1-6.175-6.176,6.193,6.193,0,0,1,6.175-6.173h68.683a6.191,6.191,0,0,1,6.173,6.173A6.193,6.193,0,0,1,3472.328-3276.111Z" transform="translate(-1883.972 3631.826)" fill="#fff"></path></g><g id="Grupo_148" data-name="Grupo 148" transform="translate(-307 -139)"><path id="Trazado_792" data-name="Trazado 792" d="M1689.1-51.311a6.535,6.535,0,0,0,6.535-6.535V-90.5a6.535,6.535,0,0,0-6.535-6.535,6.53,6.53,0,0,0-6.529,6.535v32.658A6.53,6.53,0,0,0,1689.1-51.311Z" transform="translate(-372.903 578.861)" fill="#6bb549"></path><path id="Trazado_793" data-name="Trazado 793" d="M1662.819-57.685h32.664a6.53,6.53,0,0,0,6.529-6.535,6.529,6.529,0,0,0-6.529-6.529h-32.664a6.533,6.533,0,0,0-6.529,6.529A6.534,6.534,0,0,0,1662.819-57.685Z" transform="translate(-362.956 568.903)" fill="#6bb549"></path></g><g id="Grupo_149" data-name="Grupo 149" transform="translate(-173.057 -29.605)"><path id="Trazado_792-2" data-name="Trazado 792" d="M1692.041-30.706a9.48,9.48,0,0,0,9.48-9.48V-87.56a9.48,9.48,0,0,0-9.48-9.48,9.472,9.472,0,0,0-9.471,9.48v47.373A9.472,9.472,0,0,0,1692.041-30.706Z" transform="translate(-365.544 578.861)" fill="#6bb549"></path><path id="Trazado_793-2" data-name="Trazado 793" d="M1665.761-51.8h47.382a9.473,9.473,0,0,0,9.471-9.48,9.471,9.471,0,0,0-9.471-9.471h-47.382a9.476,9.476,0,0,0-9.471,9.471A9.478,9.478,0,0,0,1665.761-51.8Z" transform="translate(-362.956 576.262)" fill="#6bb549"></path></g><g id="Grupo_161" data-name="Grupo 161" transform="translate(-7133.76 -4921.604)"><path id="Trazado_869" data-name="Trazado 869" d="M137.951-109.148H84.12v-53.833A53.834,53.834,0,0,1,137.951-109.148Z" transform="translate(8286.062 5306.808)" fill="rgba(255,199,60,0.26)"></path><path id="Trazado_870" data-name="Trazado 870" d="M57.421-161.061A50.3,50.3,0,0,0,7.173-110.817,50.3,50.3,0,0,0,57.421-60.574a50.3,50.3,0,0,0,50.24-50.243A50.3,50.3,0,0,0,57.421-161.061Zm0,107.664A57.484,57.484,0,0,1,0-110.817a57.484,57.484,0,0,1,57.421-57.421,57.488,57.488,0,0,1,57.421,57.421A57.488,57.488,0,0,1,57.421-53.4Z" transform="translate(8312.76 5308.476)" fill="#ffc73c"></path><path id="Trazado_871" data-name="Trazado 871" d="M107.853-82.2H69.811a3.587,3.587,0,0,1-3.59-3.589,3.587,3.587,0,0,1,3.59-3.589h38.042a3.588,3.588,0,0,1,3.591,3.589A3.588,3.588,0,0,1,107.853-82.2Z" transform="translate(8291.742 5283.446)" fill="#ffc73c"></path><path id="Trazado_872" data-name="Trazado 872" d="M82.451-93.542a3.588,3.588,0,0,1-3.591-3.589v-52.756a3.587,3.587,0,0,1,3.591-3.589,3.591,3.591,0,0,1,3.59,3.589v52.756A3.592,3.592,0,0,1,82.451-93.542Z" transform="translate(8287.73 5303.791)" fill="#ffc73c"></path><path id="Trazado_873" data-name="Trazado 873" d="M82.451-20.018a3.592,3.592,0,0,1-3.591-3.588v-4.307A3.592,3.592,0,0,1,82.451-31.5a3.591,3.591,0,0,1,3.59,3.588v4.307A3.591,3.591,0,0,1,82.451-20.018Z" transform="translate(8287.73 5265.078)" fill="#ffc73c"></path><path id="Trazado_874" data-name="Trazado 874" d="M144.628-82.2h-4.307a3.591,3.591,0,0,1-3.591-3.588,3.591,3.591,0,0,1,3.591-3.589h4.307a3.591,3.591,0,0,1,3.591,3.589A3.591,3.591,0,0,1,144.628-82.2Z" transform="translate(8269.363 5283.446)" fill="#ffc73c"></path><path id="Trazado_875" data-name="Trazado 875" d="M22.571-82.2h-4.3a3.586,3.586,0,0,1-3.59-3.588,3.586,3.586,0,0,1,3.59-3.589h4.3a3.587,3.587,0,0,1,3.59,3.589A3.587,3.587,0,0,1,22.571-82.2Z" transform="translate(8308.101 5283.446)" fill="#ffc73c"></path></g></g></g></svg> 